<?xml version="1.0"?>
<svg version="1.1" xmlns="http://www.w3.org/2000/svg" width="400" height="200" style="border: dashed 2px #aaa"><path fill="#" d="M16.428,116.828l1.764,0l0-19.684l-1.764,0l0,19.684z M29.27552,97.172l-4.284,0l-1.064,0l-0.7,0l0,19.628l0.7,0l1.064,0l4.284,0q4.088,0,7-2.856q2.996-2.94,2.996-7.14q0-3.976-2.996-6.832q-2.94-2.8-7-2.8z M29.27552,115.036l-4.284,0l0-16.044l4.284,0q3.5,0,5.88,2.296q2.352,2.296,2.352,5.516q0,3.5-2.352,5.852q-2.38,2.38-5.88,2.38z M58.22304,116.8l0-1.764l-4.984,0q-3.472,0-5.824-2.352t-2.352-5.824q0-3.192,2.352-5.488t5.824-2.296l4.984,0l0-1.82l-4.984,0q-4.228,0-7.084,2.8q-2.856,2.772-2.856,6.804q0,4.284,2.856,7.084q2.8,2.856,7.084,2.856l4.984,0z M70.59456,106.972l2.1,0q2.128,0,3.528-1.4t1.4-3.528q0-1.876-1.4-3.36q-1.484-1.54-3.528-1.54l-8.764,0l-1.736,0l0,19.656l1.736,0l0-9.828l4.564,0l5.964,9.828l2.1,0z M63.93056,105.236l0-6.328l8.764,0q1.288,0,2.268,0.924q0.924,0.924,0.924,2.212q0,1.344-0.924,2.268q-0.98,0.924-2.268,0.924l-8.764,0z M96.54608,97.2l-1.736,0l0,2.072q0,2.576-1.792,4.312q-1.764,1.68-4.2,1.68q-2.604,0-4.284-1.68t-1.68-4.312l0-2.072l-1.736,0l0,2.072q0,3.136,1.904,5.32q1.876,2.212,4.76,2.408l0,9.828l1.764,0l0-9.828q2.94-0.224,4.956-2.408q2.044-2.184,2.044-5.32l0-2.072z M110.8776,97.2l-8.792,0l-1.736,0l0,19.684l1.736,0l0-9.856l8.792,0q2.128,0,3.528-1.4t1.4-3.5q0-1.904-1.4-3.388q-1.484-1.54-3.528-1.54z M110.8776,105.292l-8.792,0l0-6.356l8.792,0q1.288,0,2.268,0.924q0.924,0.98,0.924,2.268q0,1.316-0.924,2.24q-0.98,0.924-2.268,0.924z M133.49712,97.2l-15.176,0l0,1.708l6.888,0l0,17.948l1.736,0l0-17.948l6.552,0l0-1.708z"/><path fill="#" d=""/></svg>
